<svg width="160" height="138" viewBox="0 0 160 138" xmlns="http://www.w3.org/2000/svg" xmlns:xlink="http://www.w3.org/1999/xlink"><title>1FE76279-45FD-4AEA-8A12-84AD96E80CF8</title><defs><path id="a" d="M95.496 62.958V.18H0v62.778z"/><path id="c" d="M25.848 19.968V.243H0v19.725z"/></defs><g fill="none" fill-rule="evenodd"><path d="M82.922 123.903V75.03c0-3.93 3.158-7.117 7.055-7.117h55.205c3.897 0 7.055 3.187 7.055 7.117v48.874c0 3.93-3.159 7.117-7.055 7.117H89.977c-3.897 0-7.055-3.186-7.055-7.118" fill="#F87300"/><g transform="translate(63.667 74.838)"><mask id="b" fill="#fff"><use xlink:href="#a"/></mask><path d="M0 57.194V5.944A5.768 5.768 0 0 1 5.773.18h83.951a5.768 5.768 0 0 1 5.773 5.764v51.25a5.768 5.768 0 0 1-5.773 5.764H5.773A5.768 5.768 0 0 1 0 57.194" fill="#FF8D00" mask="url(#b)"/></g><g transform="translate(132.983 96.387)"><mask id="d" fill="#fff"><use xlink:href="#c"/></mask><path d="M0 10.105C0 4.658 4.5.243 10.05.243h15.798v19.725H10.05C4.5 19.968 0 15.552 0 10.105" fill="#F87300" mask="url(#d)"/></g><path d="M148.385 106.392a5.39 5.39 0 0 1-5.391 5.387 5.389 5.389 0 0 1-5.39-5.387 5.389 5.389 0 0 1 5.39-5.387 5.39 5.39 0 0 1 5.392 5.387" fill="#FF8D00"/><g><g><path d="M104.518 79.252c-2.413 0-4.389 2.238-4.389 4.662 0 2.425 1.99 4.662 4.396 4.662h4.953a16.914 16.914 0 0 1-2.864-9.324h-2.096zm33.188 0h-1.226a16.914 16.914 0 0 1-2.865 9.324h4.091c2.414 0 4.397-2.237 4.397-4.661 0-2.425-1.983-4.663-4.397-4.663z" fill="#DB7200"/><path d="M121.554 64.267c-8.199.1-14.82 6.751-14.92 14.985a16.914 16.914 0 0 0 2.844 9.324h24.111a16.914 16.914 0 0 0 2.865-9.324c-.1-8.226-6.71-14.873-14.9-14.985z" fill="#F9C00C"/><rect fill="#6A60A9" y="42.936" width="95.022" height="60.292" rx="8.627"/><rect fill="#615CA0" x="9.946" y="64.96" width="13.766" height="13.826" rx="4.314"/><rect fill="#615CA0" x="9.946" y="86.312" width="38.56" height="7.639" rx="2.588"/><path d="M73.532 90.128a6.929 6.929 0 0 1 2.857-5.614 6.888 6.888 0 0 0-9.196.97 6.962 6.962 0 0 0 0 9.287 6.888 6.888 0 0 0 9.196.97 6.929 6.929 0 0 1-2.857-5.613z" fill="#615CA0"/><path d="M81.813 83.195c-3.786.022-6.84 3.117-6.83 6.92.012 3.802 3.084 6.878 6.87 6.878s6.86-3.076 6.87-6.878c.012-3.803-3.044-6.898-6.83-6.92h-.08z" fill="#615CA0"/><path d="M30.914 51.281c-2.414 0-4.39 2.238-4.39 4.662s1.99 4.662 4.397 4.662h4.953a16.914 16.914 0 0 1-2.865-9.324h-2.095zm33.189 0h-1.228a16.914 16.914 0 0 1-2.864 9.324h4.092c2.413 0 4.396-2.238 4.396-4.662s-1.983-4.662-4.396-4.662z" fill="#58539B"/><path d="M47.949 36.296c-8.198.1-14.82 6.751-14.92 14.985a16.914 16.914 0 0 0 2.845 9.324h24.11a16.914 16.914 0 0 0 2.865-9.324c-.1-8.227-6.71-14.874-14.9-14.985z" fill="#F9C00C"/><ellipse fill="#F9C00C" cx="74.904" cy="15.431" rx="14.92" ry="14.985"/><ellipse fill="#F9C00C" cx="117.748" cy="33.466" rx="14.92" ry="14.985"/></g></g></g></svg>